<?xml version="1.0" encoding="UTF-8" standalone="no"?>
<!-- Created with Inkscape (http://www.inkscape.org/) -->

<svg
   xmlns:osb="http://www.openswatchbook.org/uri/2009/osb"
   xmlns:dc="http://purl.org/dc/elements/1.1/"
   xmlns:cc="http://creativecommons.org/ns#"
   xmlns:rdf="http://www.w3.org/1999/02/22-rdf-syntax-ns#"
   xmlns:svg="http://www.w3.org/2000/svg"
   xmlns="http://www.w3.org/2000/svg"
   xmlns:sodipodi="http://sodipodi.sourceforge.net/DTD/sodipodi-0.dtd"
   xmlns:inkscape="http://www.inkscape.org/namespaces/inkscape"
   width="101mm"
   height="63mm"
   viewBox="0 0 101 63"
   version="1.1"
   id="svg8"
   inkscape:version="0.92.5 (2060ec1f9f, 2020-04-08)"
   sodipodi:docname="Logo.svg">
  <defs
     id="defs2">
    <inkscape:perspective
       sodipodi:type="inkscape:persp3d"
       inkscape:vp_x="0 : 105.00002 : 1"
       inkscape:vp_y="0 : 1000.0001 : 0"
       inkscape:vp_z="297.00009 : 105.00002 : 1"
       inkscape:persp3d-origin="148.50004 : 70.000003 : 1"
       id="perspective2931" />
    <linearGradient
       id="linearGradient2770"
       osb:paint="solid">
      <stop
         style="stop-color:#005da4;stop-opacity:1;"
         offset="0"
         id="stop2768" />
    </linearGradient>
  </defs>
  <sodipodi:namedview
     id="base"
     pagecolor="#ffffff"
     bordercolor="#666666"
     borderopacity="1.0"
     inkscape:pageopacity="0.0"
     inkscape:pageshadow="2"
     inkscape:zoom="1"
     inkscape:cx="156.89321"
     inkscape:cy="194.28812"
     inkscape:document-units="mm"
     inkscape:current-layer="layer4"
     showgrid="false"
     showguides="true"
     inkscape:guide-bbox="true"
     inkscape:window-width="2560"
     inkscape:window-height="1017"
     inkscape:window-x="-8"
     inkscape:window-y="-8"
     inkscape:window-maximized="1">
    <sodipodi:guide
       position="39.101532,-2.9934187"
       orientation="0,1"
       id="guide3094"
       inkscape:locked="false" />
  </sodipodi:namedview>
  <metadata
     id="metadata5">
    <rdf:RDF>
      <cc:Work
         rdf:about="">
        <dc:format>image/svg+xml</dc:format>
        <dc:type
           rdf:resource="http://purl.org/dc/dcmitype/StillImage" />
        <dc:title></dc:title>
      </cc:Work>
    </rdf:RDF>
  </metadata>
  <g
     inkscape:groupmode="layer"
     id="layer4"
     inkscape:label="background"
     style="display:inline"
     transform="translate(0,-147)">
    <ellipse
       style="fill:#bad2ed;fill-opacity:1;stroke:#060000;stroke-width:0.69595903;stroke-linecap:round;stroke-linejoin:round;stroke-miterlimit:6.80000019;stroke-dasharray:none;stroke-opacity:1;paint-order:stroke markers fill"
       id="path2843"
       cx="50"
       cy="179"
       rx="49.65202"
       ry="30.652021" />
  </g>
  <g
     inkscape:groupmode="layer"
     id="layer5"
     inkscape:label="Icons"
     style="display:inline"
     transform="translate(0,-147)">
    <path
       style="fill:#bad2ed;fill-opacity:1;stroke:#060000;stroke-width:0.5;stroke-linecap:round;stroke-linejoin:round;stroke-miterlimit:0;stroke-dasharray:none;stroke-opacity:1;paint-order:markers fill stroke"
       d="m 68.928084,183.93037 h 1.333871 c 0.175382,0 0.316575,0.1412 0.316575,0.31657 v 1.14677 c 0,0.17538 -0.141193,0.31657 -0.316575,0.31657 h -1.333871 c -0.175382,0 -0.316575,-0.14119 -0.316575,-0.31657 v -1.14677 c 0,-0.17537 0.141193,-0.31657 0.316575,-0.31657 z"
       id="path960"
       inkscape:connector-curvature="0" />
    <path
       style="fill:#bad2ed;fill-opacity:1;stroke:#060000;stroke-width:0.5;stroke-linecap:round;stroke-linejoin:round;stroke-miterlimit:0;stroke-dasharray:none;stroke-opacity:1;paint-order:markers fill stroke"
       d="M 66.168829,183.93037 H 67.5027 c 0.175382,0 0.316574,0.1412 0.316574,0.31657 v 1.14677 c 0,0.17538 -0.141192,0.31657 -0.316574,0.31657 h -1.333871 c -0.175383,0 -0.316575,-0.14119 -0.316575,-0.31657 v -1.14677 c 0,-0.17537 0.141192,-0.31657 0.316575,-0.31657 z"
       id="path958"
       inkscape:connector-curvature="0" />
    <path
       style="fill:#bad2ed;fill-opacity:1;stroke:#060000;stroke-width:0.5;stroke-linecap:round;stroke-linejoin:round;stroke-miterlimit:0;stroke-dasharray:none;stroke-opacity:1;paint-order:markers fill stroke"
       d="m 63.410769,183.93037 h 1.333871 c 0.175383,0 0.316576,0.1412 0.316576,0.31657 v 1.14677 c 0,0.17538 -0.141193,0.31657 -0.316576,0.31657 h -1.333871 c -0.175382,0 -0.316574,-0.14119 -0.316574,-0.31657 v -1.14677 c 0,-0.17537 0.141192,-0.31657 0.316574,-0.31657 z"
       id="path956"
       inkscape:connector-curvature="0" />
    <path
       style="fill:#bad2ed;fill-opacity:1;stroke:#060000;stroke-width:0.5;stroke-linecap:round;stroke-linejoin:round;stroke-miterlimit:0;stroke-dasharray:none;stroke-opacity:1;paint-order:markers fill stroke"
       d="m 71.61872,181.14845 h 1.471064 c 0.08806,0 0.158947,0.0709 0.158947,0.15895 v 4.2491 c 0,0.0881 -0.07089,0.15895 -0.158947,0.15895 H 71.61872 c -0.08806,0 -0.158946,-0.0709 -0.158946,-0.15895 v -4.2491 c 0,-0.0881 0.07089,-0.15895 0.158946,-0.15895 z"
       id="path954"
       inkscape:connector-curvature="0" />
    <path
       style="fill:#bad2ed;fill-opacity:1;stroke:#060000;stroke-width:0.5;stroke-linecap:round;stroke-linejoin:round;stroke-miterlimit:0;stroke-dasharray:none;stroke-opacity:1;paint-order:markers fill stroke"
       d="m 68.928084,181.14092 h 1.333871 c 0.175382,0 0.316575,0.1412 0.316575,0.31658 v 1.14676 c 0,0.17539 -0.141193,0.31658 -0.316575,0.31658 h -1.333871 c -0.175382,0 -0.316575,-0.14119 -0.316575,-0.31658 v -1.14676 c 0,-0.17538 0.141193,-0.31658 0.316575,-0.31658 z"
       id="path952"
       inkscape:connector-curvature="0" />
    <path
       style="fill:#bad2ed;fill-opacity:1;stroke:#060000;stroke-width:0.5;stroke-linecap:round;stroke-linejoin:round;stroke-miterlimit:0;stroke-dasharray:none;stroke-opacity:1;paint-order:markers fill stroke"
       d="M 66.168829,181.14092 H 67.5027 c 0.175382,0 0.316574,0.1412 0.316574,0.31658 v 1.14676 c 0,0.17539 -0.141192,0.31658 -0.316574,0.31658 h -1.333871 c -0.175383,0 -0.316575,-0.14119 -0.316575,-0.31658 v -1.14676 c 0,-0.17538 0.141192,-0.31658 0.316575,-0.31658 z"
       id="path950"
       inkscape:connector-curvature="0" />
    <path
       style="fill:#bad2ed;fill-opacity:1;stroke:#060000;stroke-width:0.5;stroke-linecap:round;stroke-linejoin:round;stroke-miterlimit:0;stroke-dasharray:none;stroke-opacity:1;paint-order:markers fill stroke"
       d="m 63.410769,181.14092 h 1.333871 c 0.175383,0 0.316576,0.1412 0.316576,0.31658 v 1.14676 c 0,0.17539 -0.141193,0.31658 -0.316576,0.31658 h -1.333871 c -0.175382,0 -0.316574,-0.14119 -0.316574,-0.31658 v -1.14676 c 0,-0.17538 0.141192,-0.31658 0.316574,-0.31658 z"
       id="path948"
       inkscape:connector-curvature="0" />
    <path
       style="fill:#bad2ed;fill-opacity:1;stroke:#060000;stroke-width:0.5;stroke-linecap:round;stroke-linejoin:round;stroke-miterlimit:0;stroke-dasharray:none;stroke-opacity:1;paint-order:markers fill stroke"
       d="m 71.687321,178.46396 h 1.333871 c 0.175382,0 0.316574,0.14119 0.316574,0.31658 v 1.14675 c 0,0.17539 -0.141192,0.31659 -0.316574,0.31659 h -1.333871 c -0.175383,0 -0.316576,-0.1412 -0.316576,-0.31659 v -1.14675 c 0,-0.17539 0.141193,-0.31658 0.316576,-0.31658 z"
       id="path946"
       inkscape:connector-curvature="0" />
    <path
       style="fill:#bad2ed;fill-opacity:1;stroke:#060000;stroke-width:0.5;stroke-linecap:round;stroke-linejoin:round;stroke-miterlimit:0;stroke-dasharray:none;stroke-opacity:1;paint-order:markers fill stroke"
       d="m 68.928084,178.46396 h 1.333871 c 0.175382,0 0.316575,0.14119 0.316575,0.31658 v 1.14675 c 0,0.17539 -0.141193,0.31659 -0.316575,0.31659 h -1.333871 c -0.175382,0 -0.316575,-0.1412 -0.316575,-0.31659 v -1.14675 c 0,-0.17539 0.141193,-0.31658 0.316575,-0.31658 z"
       id="path944"
       inkscape:connector-curvature="0" />
    <path
       style="fill:#bad2ed;fill-opacity:1;stroke:#060000;stroke-width:0.5;stroke-linecap:round;stroke-linejoin:round;stroke-miterlimit:0;stroke-dasharray:none;stroke-opacity:1;paint-order:markers fill stroke"
       d="M 66.168829,178.46396 H 67.5027 c 0.175382,0 0.316574,0.14119 0.316574,0.31658 v 1.14675 c 0,0.17539 -0.141192,0.31659 -0.316574,0.31659 h -1.333871 c -0.175383,0 -0.316575,-0.1412 -0.316575,-0.31659 v -1.14675 c 0,-0.17539 0.141192,-0.31658 0.316575,-0.31658 z"
       id="path942"
       inkscape:connector-curvature="0" />
    <path
       style="fill:#bad2ed;fill-opacity:1;stroke:#060000;stroke-width:0.5;stroke-linecap:round;stroke-linejoin:round;stroke-miterlimit:0;stroke-dasharray:none;stroke-opacity:1;paint-order:markers fill stroke"
       d="m 63.410769,178.46396 h 1.333871 c 0.175383,0 0.316576,0.14119 0.316576,0.31658 v 1.14675 c 0,0.17539 -0.141193,0.31659 -0.316576,0.31659 h -1.333871 c -0.175382,0 -0.316574,-0.1412 -0.316574,-0.31659 v -1.14675 c 0,-0.17539 0.141192,-0.31658 0.316574,-0.31658 z"
       id="path940"
       inkscape:connector-curvature="0" />
    <path
       style="fill:#bad2ed;fill-opacity:1;stroke:#060000;stroke-width:0.5;stroke-linecap:round;stroke-linejoin:round;stroke-miterlimit:0;stroke-dasharray:none;stroke-opacity:1;paint-order:markers fill stroke"
       d="m 63.535992,172.2032 h 9.341501 c 0.241516,0 0.43595,0.19444 0.43595,0.43596 v 1.57918 c 0,0.24151 -0.194434,0.43594 -0.43595,0.43594 h -9.341501 c -0.241516,0 -0.43595,-0.19443 -0.43595,-0.43594 v -1.57918 c 0,-0.24152 0.194434,-0.43596 0.43595,-0.43596 z"
       id="path938"
       inkscape:connector-curvature="0" />
    <path
       style="fill:#bad2ed;fill-opacity:1;stroke:#060000;stroke-width:0.5;stroke-linecap:round;stroke-linejoin:round;stroke-miterlimit:0;stroke-dasharray:none;stroke-opacity:1;paint-order:markers fill stroke"
       d="m 71.687321,175.75788 h 1.333871 c 0.175382,0 0.316574,0.14119 0.316574,0.31657 v 1.14676 c 0,0.17538 -0.141192,0.31657 -0.316574,0.31657 h -1.333871 c -0.175383,0 -0.316576,-0.14119 -0.316576,-0.31657 v -1.14676 c 0,-0.17538 0.141193,-0.31657 0.316576,-0.31657 z"
       id="path936"
       inkscape:connector-curvature="0" />
    <path
       style="fill:#bad2ed;fill-opacity:1;stroke:#060000;stroke-width:0.5;stroke-linecap:round;stroke-linejoin:round;stroke-miterlimit:0;stroke-dasharray:none;stroke-opacity:1;paint-order:markers fill stroke"
       d="m 68.928084,175.75788 h 1.333871 c 0.175382,0 0.316575,0.14119 0.316575,0.31657 v 1.14676 c 0,0.17538 -0.141193,0.31657 -0.316575,0.31657 h -1.333871 c -0.175382,0 -0.316575,-0.14119 -0.316575,-0.31657 v -1.14676 c 0,-0.17538 0.141193,-0.31657 0.316575,-0.31657 z"
       id="path934"
       inkscape:connector-curvature="0" />
    <path
       style="fill:#bad2ed;fill-opacity:1;stroke:#060000;stroke-width:0.5;stroke-linecap:round;stroke-linejoin:round;stroke-miterlimit:0;stroke-dasharray:none;stroke-opacity:1;paint-order:markers fill stroke"
       d="M 66.168829,175.75788 H 67.5027 c 0.175382,0 0.316574,0.14119 0.316574,0.31657 v 1.14676 c 0,0.17538 -0.141192,0.31657 -0.316574,0.31657 h -1.333871 c -0.175383,0 -0.316575,-0.14119 -0.316575,-0.31657 v -1.14676 c 0,-0.17538 0.141192,-0.31657 0.316575,-0.31657 z"
       id="path932"
       inkscape:connector-curvature="0" />
    <path
       style="fill:#bad2ed;fill-opacity:1;stroke:#060000;stroke-width:0.5;stroke-linecap:round;stroke-linejoin:round;stroke-miterlimit:0;stroke-dasharray:none;stroke-opacity:1;paint-order:markers fill stroke"
       d="m 63.410769,175.75788 h 1.333871 c 0.175383,0 0.316576,0.14119 0.316576,0.31657 v 1.14676 c 0,0.17538 -0.141193,0.31657 -0.316576,0.31657 h -1.333871 c -0.175382,0 -0.316574,-0.14119 -0.316574,-0.31657 v -1.14676 c 0,-0.17538 0.141192,-0.31657 0.316574,-0.31657 z"
       id="path930"
       inkscape:connector-curvature="0" />
    <path
       style="fill:none;fill-opacity:1;stroke:#060000;stroke-width:0.75;stroke-linecap:round;stroke-linejoin:round;stroke-miterlimit:0;stroke-dasharray:none;stroke-opacity:1;paint-order:markers fill stroke"
       d="m 61.535849,169.7385 h 13.352786 c 0.617596,0 1.114794,0.4972 1.114794,1.11479 v 16.73041 c 0,0.6176 -0.497198,1.11479 -1.114794,1.11479 H 61.535849 c -0.617596,0 -1.114794,-0.49719 -1.114794,-1.11479 v -16.73041 c 0,-0.61759 0.497198,-1.11479 1.114794,-1.11479 z"
       id="rect2947-1-9"
       inkscape:connector-curvature="0" />
    <path
       id="path3104-1-9"
       style="display:inline;fill:none;fill-opacity:0.32160806;stroke:#000000;stroke-width:0.75;stroke-linecap:round;stroke-linejoin:round;stroke-miterlimit:4;stroke-dasharray:none;stroke-opacity:1"
       d="m 32.02055,174.39059 v 12.74622 m 9.704292,-15.43506 2.5e-5,15.43506 H 22.446948 v -15.49384 m 9.573602,2.74762 c -2.308388,-2.36429 -5.34328,-2.99983 -8.32097,-3.77149 v 12.57163 2.11683 c 3.156208,0.77349 5.994007,-0.11879 8.32097,1.82925 2.538329,-1.68386 5.104732,-1.22105 8.320985,-1.67581 -0.009,-1.10034 -0.01732,-1.61091 -0.02598,-3.30108 l 0.02598,-11.26666 v -0.0996 c -3.351103,0.42836 -6.004762,1.68315 -8.320985,3.59689 z m -6.870198,-0.38758 5.552446,1.70522 m -5.484845,0.99954 5.552446,1.70523 m -5.510775,0.87661 5.552432,1.70522 m -5.510788,0.95281 5.552432,1.70522 m 8.047379,-9.64987 -5.552446,1.70524 m 5.620048,0.99955 -5.552447,1.70522 m 5.59409,0.87664 -5.552433,1.70519 m 5.594103,0.95284 -5.552459,1.70519"
       inkscape:connector-curvature="0" />
  </g>
  <g
     inkscape:label="Layer 1"
     inkscape:groupmode="layer"
     id="layer1"
     transform="translate(0,-234)"
     style="display:inline">
    <path
       id="path922-0-4"
       style="fill:#00c0f3;fill-opacity:1;stroke:#000000;stroke-width:1.21792841;stroke-miterlimit:4;stroke-dasharray:none;stroke-opacity:1"
       d="m 82.091239,266.055 a 14.015692,13.999882 0 0 1 -14.01568,13.9999 14.015692,13.999882 0 0 1 -14.01571,-13.9999 14.015692,13.999882 0 0 1 14.01571,-13.99987 14.015692,13.999882 0 0 1 14.01568,13.99987 z M 32.387603,244.11414 c -11.96623,0 -21.66693,9.68958 -21.66693,21.64229 0,6.31985 2.71202,12.00706 7.03687,15.9638 3.85472,3.52663 8.99083,5.67851 14.63006,5.67851 7.35713,0 13.85668,-3.6635 17.77297,-9.26305 a 21.666755,21.642317 0 0 0 17.740966,9.26305 21.666755,21.642317 0 0 0 21.66673,-21.64231 21.666755,21.642317 0 0 0 -21.66673,-21.64229 21.666755,21.642317 0 0 0 -17.750686,9.24921 c -3.91733,-5.59167 -10.41224,-9.24921 -17.76325,-9.24921 z m 13.71672,21.94086 c 0,7.73192 -6.27502,13.9999 -14.01569,13.9999 -7.74065,0 -14.01568,-6.26798 -14.01568,-13.9999 0,-7.73192 6.27503,-13.99987 14.01568,-13.99987 7.74067,0 14.01569,6.26795 14.01569,13.99987 z"
       inkscape:connector-curvature="0" />
  </g>
  <g
     inkscape:groupmode="layer"
     id="layer3"
     inkscape:label="2"
     style="display:inline"
     transform="translate(0,-147)">
    <path
       id="path1269"
       style="display:inline;fill:#005da4;fill-opacity:0.99497483;stroke:#060000;stroke-width:2.08787727;stroke-linecap:butt;stroke-linejoin:round;stroke-miterlimit:6.80000019;stroke-dasharray:none;stroke-opacity:1;paint-order:stroke markers fill"
       d="m 86.058709,160.50866 v 11.18039 h -11.19302 c 1.28135,-1.25657 0,0 2.7724,-2.72329 -2.60659,-2.48207 -6.15992,-3.91086 -9.76118,-3.91086 -7.624,0 -13.72493,6.08793 -13.88779,13.70157 v 0 c 0,11.95271 -9.700486,21.64229 -21.666696,21.64233 -5.74625,-2e-5 -11.2994,-2.28447 -15.36268,-6.34303 -2.61695,2.66001 -2.08447,2.12771 -2.61695,2.66001 v -11.18039 h 11.19302 c -0.69705,0.68263 0,0 -3.45182,3.4019 2.62845,2.62538 6.2224,4.11761 9.9395,4.11761 7.74066,0 14.01569,-6.26798 14.01569,-13.9999 4e-5,-0.0996 -9.9e-4,-0.18488 -0.003,-0.28438 0,-11.95271 9.700526,-21.65667 21.666766,-21.65667 5.74628,0 11.25724,2.28009 15.32052,6.33871 3.03536,-2.944 2.8461,-2.75353 3.03536,-2.944 z"
       inkscape:connector-curvature="0"
       sodipodi:nodetypes="ccccsccccccccsccscc" />
  </g>
</svg>
